<svg width="32" height="32" viewBox="0 0 32 32" fill="none" xmlns="http://www.w3.org/2000/svg">
<path d="M9.40034 22.5997C12.5245 25.7239 17.6837 25.6301 20.9236 22.3902C25.2918 18.0219 25.6237 11.1696 25.5302 8.12236C25.5021 7.2066 24.7934 6.49789 23.8777 6.46979C20.8305 6.37628 13.9781 6.70818 9.60985 11.0765C6.36995 14.3164 6.27615 19.4755 9.40034 22.5997ZM9.40034 22.5997L6.57192 25.4281M9.40034 22.5997L16.9428 15.0572M19.7712 12.2288L16.9428 15.0572M16.9428 15.0572L19.7712 16M16.9428 15.0572L16 12.2288M16 19.7712L14.1203 19.1447C13.5231 18.9456 13.0544 18.477 12.8554 17.8798L12.2288 16" stroke="#0FBF00" stroke-width="2" stroke-linecap="round" stroke-linejoin="round"/>
</svg>
