<svg width="32" height="32" viewBox="0 0 32 32" fill="none" xmlns="http://www.w3.org/2000/svg">
<path fill-rule="evenodd" clip-rule="evenodd" d="M21.3334 21.22V24C21.3334 26.9455 18.9456 29.3334 16.0001 29.3334C13.0546 29.3334 10.6667 26.9455 10.6667 24V21.22C10.6667 20.9597 10.5745 20.6756 10.3567 20.3016C10.2167 20.0613 10.0337 19.7974 9.75742 19.4319L9.66447 19.3107C9.48001 19.0703 9.0772 18.5453 8.92848 18.3444C7.422 16.3097 6.66675 14.4932 6.66675 12C6.66675 6.84536 10.8454 2.66669 16.0001 2.66669C21.1547 2.66669 25.3334 6.84536 25.3334 12C25.3334 14.5477 24.5678 16.4331 23.0742 18.464C22.9159 18.6793 22.5165 19.1983 22.2799 19.5057L22.279 19.5069C22.1869 19.6266 22.1197 19.714 22.1013 19.7385C21.7995 20.14 21.612 20.4247 21.49 20.6719C21.3797 20.8956 21.3334 21.0684 21.3334 21.22ZM18.725 20.5858C18.793 20.217 18.9195 19.8551 19.0985 19.4921C19.309 19.0655 19.5767 18.659 19.9696 18.1362C19.9966 18.1003 20.0835 17.9874 20.1957 17.8415L20.1959 17.8412C20.436 17.529 20.792 17.0662 20.926 16.884C22.1108 15.2731 22.6667 13.9039 22.6667 12C22.6667 8.31812 19.682 5.33335 16.0001 5.33335C12.3182 5.33335 9.33342 8.31812 9.33342 12C9.33342 13.8381 9.87563 15.1422 11.0717 16.7576C11.2001 16.931 11.5626 17.4037 11.7585 17.6591L11.7586 17.6593L11.7588 17.6595C11.8252 17.7461 11.8724 17.8076 11.8847 17.8239C12.2197 18.2671 12.4568 18.6088 12.661 18.9594C12.979 19.5055 13.1902 20.0378 13.2817 20.5897C14.1126 21.0884 15.0107 21.3334 16.0001 21.3334C16.992 21.3334 17.8923 21.0871 18.725 20.5858ZM18.6667 24V23.5499C17.8235 23.8492 16.9325 24 16.0001 24C15.0676 24 14.1767 23.8492 13.3334 23.5499V24C13.3334 25.4728 14.5273 26.6667 16.0001 26.6667C17.4728 26.6667 18.6667 25.4728 18.6667 24Z" fill="black"/>
</svg>
